<?xml version="1.0" encoding="UTF-8"?>
<svg version="1.1" xmlns="http://www.w3.org/2000/svg" width="330" height="274">
<path d="M0 0 C108.9 0 217.8 0 330 0 C330 90.42 330 180.84 330 274 C221.1 274 112.2 274 0 274 C0 183.58 0 93.16 0 0 Z " fill="#FEFDFD" transform="translate(0,0)"/>
<path d="M0 0 C1.30650009 -0.00807175 2.61300018 -0.01614349 3.95909119 -0.02445984 C6.72345845 -0.03941001 9.48780091 -0.04927832 12.25219727 -0.05688477 C15.03400174 -0.0656556 17.81529208 -0.08632926 20.59692383 -0.1184082 C38.21009105 -0.31727671 55.1057626 0.54477371 72.40234375 4.23828125 C72.40234375 4.56828125 72.40234375 4.89828125 72.40234375 5.23828125 C67.40074858 5.37453356 62.87691467 5.05442732 57.96240234 4.1706543 C10.30281919 -4.08009074 -48.7567771 0.43335843 -90.10546875 26.83984375 C-93.32595523 29.27802582 -94.51348734 30.80213324 -95.28515625 34.80078125 C-94.46978527 38.87763617 -93.64694869 40.41768574 -90.59765625 43.23828125 C-84.29480882 46.8235187 -78.07487606 48.66562245 -71.03515625 50.30078125 C-69.93816406 50.55827148 -68.84117188 50.81576172 -67.7109375 51.08105469 C-56.74822172 53.56656697 -45.7764436 55.13185468 -34.59765625 56.23828125 C-33.56576172 56.34124512 -32.53386719 56.44420898 -31.47070312 56.55029297 C-3.85831163 59.21634602 29.9868347 62.09326042 55.90234375 50.55078125 C56.71477539 50.19628906 57.52720703 49.84179688 58.36425781 49.4765625 C74.61709444 42.31629484 74.61709444 42.31629484 85.55859375 28.83984375 C87.32169731 23.40360779 87.49171246 17.46438252 84.96484375 12.30078125 C81.43282099 9.45793367 77.61602757 7.84992528 73.40234375 6.23828125 C75.68983093 5.45880344 77.01560857 5.12679695 79.3671875 5.8046875 C84.85644595 8.57649127 88.58716824 11.60793023 91.40234375 17.23828125 C92.1899429 26.23508689 91.13504033 33.11596116 85.46484375 40.23828125 C79.3624587 46.82106682 71.41971563 51.36659349 63.40234375 55.23828125 C64.14097656 55.51800781 64.87960938 55.79773438 65.640625 56.0859375 C84.66746193 63.6048019 84.66746193 63.6048019 89.40234375 71.23828125 C89.97676438 75.01304537 89.61021593 76.83916666 87.83984375 80.23828125 C78.61388205 91.59331103 65.95871557 95.28574108 52.40234375 99.23828125 C53.20800781 100.00011719 54.01367188 100.76195313 54.84375 101.546875 C57.75463436 104.60885871 58.31356205 106.06554143 58.40234375 110.23828125 C57.27252223 114.5064959 54.02215939 116.03491521 50.40234375 118.23828125 C50.90765625 118.56699219 51.41296875 118.89570313 51.93359375 119.234375 C57.02265134 122.96029216 57.02265134 122.96029216 58.04296875 126.39453125 C58.33229241 132.42899621 56.36411384 135.80487186 52.40234375 140.23828125 C51.74234375 140.23828125 51.08234375 140.23828125 50.40234375 140.23828125 C50.40234375 140.89828125 50.40234375 141.55828125 50.40234375 142.23828125 C51.08296875 142.42390625 51.76359375 142.60953125 52.46484375 142.80078125 C56.93899951 144.99026173 61.14668722 148.72696819 63.40234375 153.23828125 C63.86480212 157.32333018 63.91844079 159.47303392 61.58984375 162.92578125 C57.20716731 166.10537004 52.53773456 167.62841268 47.40234375 169.23828125 C49.04551154 173.75300439 51.38673336 177.26424371 54.16015625 181.15234375 C55.40234375 183.23828125 55.40234375 183.23828125 55.40234375 186.23828125 C50.81890343 185.3989648 48.6337976 182.66958934 45.65234375 179.30078125 C45.14574219 178.74970703 44.63914063 178.19863281 44.1171875 177.63085938 C40.40234375 173.51048686 40.40234375 173.51048686 40.40234375 171.23828125 C39.36335937 171.45484375 38.324375 171.67140625 37.25390625 171.89453125 C12.20086103 176.96532779 12.20086103 176.96532779 1.41015625 171.16796875 C-1.01748838 169.32110034 -2.47397086 167.51313767 -3.72265625 164.73828125 C-3.53474259 160.98000799 -2.34986207 159.79390094 0.40234375 157.23828125 C8.90412164 152.42382749 16.82697377 152.08493903 26.40234375 152.23828125 C26.07234375 151.24828125 25.74234375 150.25828125 25.40234375 149.23828125 C24.41951416 149.22369873 23.43668457 149.20911621 22.42407227 149.1940918 C18.73915212 149.13563535 15.05481319 149.05841067 11.37036133 148.97583008 C9.78289297 148.94280146 8.1953134 148.91470256 6.60766602 148.8918457 C-12.54198732 148.6087272 -12.54198732 148.6087272 -20.22265625 143.48828125 C-21.59765625 141.23828125 -21.59765625 141.23828125 -21.84765625 137.80078125 C-20.46451773 133.85883646 -19.94548455 133.50499828 -16.51953125 131.515625 C-15.78831055 131.0837085 -15.05708984 130.65179199 -14.30371094 130.20678711 C-13.45921387 129.72737671 -13.45921387 129.72737671 -12.59765625 129.23828125 C-13.32766846 129.19340576 -14.05768066 129.14853027 -14.80981445 129.10229492 C-18.17745698 128.88853973 -21.54368735 128.65726016 -24.91015625 128.42578125 C-26.05806641 128.35552734 -27.20597656 128.28527344 -28.38867188 128.21289062 C-46.48140212 126.93153579 -46.48140212 126.93153579 -51.85668945 122.28588867 C-53.59765625 120.23828125 -53.59765625 120.23828125 -54.34765625 117.80078125 C-53.27790895 114.14581131 -51.29598858 113.23853084 -48.046875 111.4296875 C-38.58604268 106.82752824 -28.901615 104.88518107 -18.59765625 103.23828125 C-17.36208984 103.0371875 -17.36208984 103.0371875 -16.1015625 102.83203125 C-8.98980577 101.86407948 -1.75792173 102.15337692 5.40234375 102.23828125 C5.40234375 101.57828125 5.40234375 100.91828125 5.40234375 100.23828125 C3.54609375 100.25568359 3.54609375 100.25568359 1.65234375 100.2734375 C-8.35499443 100.33796313 -18.34635897 100.23083829 -28.34765625 99.86328125 C-29.82685547 99.81699585 -29.82685547 99.81699585 -31.3359375 99.76977539 C-47.13231854 99.12368191 -47.13231854 99.12368191 -53.03515625 94.30078125 C-53.67324219 93.79675781 -54.31132813 93.29273437 -54.96875 92.7734375 C-57.7801617 90.12383367 -58.58540895 88.31176503 -59.22265625 84.48828125 C-59.07207585 80.9136334 -58.17617562 79.14618665 -55.66015625 76.61328125 C-46.11446466 69.20392561 -33.23430831 66.96073133 -21.59765625 65.23828125 C-22.47687744 65.14329346 -23.35609863 65.04830566 -24.26196289 64.95043945 C-86.11593085 58.15750874 -86.11593085 58.15750874 -98.59765625 44.23828125 C-100.38791007 40.6577736 -100.29893848 37.13290222 -99.59765625 33.23828125 C-93.0785798 19.84361636 -69.93416358 12.71485487 -57.14282227 8.25 C-45.95769209 4.54105919 -34.24815823 2.81223353 -22.59765625 1.23828125 C-21.67097389 1.10786186 -21.67097389 1.10786186 -20.72557068 0.97480774 C-13.82562081 0.09383558 -6.94861976 0.04158101 0 0 Z " fill="#734F16" transform="translate(164.59765625,17.76171875)"/>
<path d="M0 0 C5.13675279 0.90192642 10.24677205 0.78770455 15.4453125 0.65625 C15.4453125 1.31625 15.4453125 1.97625 15.4453125 2.65625 C16.24195313 3.00236328 16.24195313 3.00236328 17.0546875 3.35546875 C21.55923409 5.43512256 25.11073777 7.08437449 27.4453125 11.65625 C28.36137175 17.72514251 28.03359282 23.41389435 24.875 28.76171875 C14.35295099 42.70487113 -6.61479221 51.23170518 -23.57568359 53.72558594 C-26.89490519 54.13342516 -30.22032881 54.41341381 -33.5546875 54.65625 C-34.22967285 54.71119629 -34.9046582 54.76614258 -35.60009766 54.82275391 C-55.36721691 56.40505696 -74.83817306 55.62359115 -94.5546875 53.65625 C-95.52986328 53.55973145 -96.50503906 53.46321289 -97.50976562 53.36376953 C-108.80998395 52.19418541 -119.85985934 50.34461729 -130.9296875 47.78125 C-131.95771484 47.54889648 -132.98574219 47.31654297 -134.04492188 47.07714844 C-141.61901906 45.22719636 -148.3355555 42.63983576 -154.1171875 37.28125 C-156.12560226 33.61370999 -156.40786654 31.77994869 -155.5546875 27.65625 C-143.83154268 11.15983775 -114.84975515 5.61346275 -96.5546875 1.65625 C-95.74765381 1.47513672 -94.94062012 1.29402344 -94.10913086 1.10742188 C-65.02177141 -5.14280254 -29.22893529 -5.32440605 0 0 Z " fill="#F0D598" transform="translate(224.5546875,21.34375)"/>
<path d="M0 0 C2.96875 2.05078125 2.96875 2.05078125 5 4 C5.27354047 7.62441126 4.82221584 9.83498723 2.70703125 12.83203125 C-7.10511177 23.52983088 -23.11295732 27.34925106 -37.10578918 28.11528015 C-42.77249242 28.30115302 -48.44032489 28.2805901 -54.109375 28.265625 C-55.93011527 28.26697575 -57.75085519 28.26891969 -59.57159424 28.27142334 C-63.36368284 28.27435231 -67.15567645 28.2701473 -70.94775391 28.26074219 C-75.78818137 28.24931622 -80.62838773 28.25594116 -85.46880722 28.26788712 C-89.21962123 28.27513832 -92.9703834 28.2728034 -96.72119904 28.26763153 C-98.5056384 28.26630574 -100.2900826 28.26790485 -102.0745163 28.27259064 C-104.57161324 28.27771355 -107.06835869 28.26986699 -109.56542969 28.25878906 C-110.28875992 28.26283752 -111.01209015 28.26688599 -111.75733948 28.27105713 C-120.81063931 28.19727042 -128.39326424 26.60673576 -135 20 C-135.4375 17.125 -135.4375 17.125 -135 14 C-120.99946971 0.99772499 -99.82212428 1.49785952 -82 2 C-81.49528803 3.76949612 -80.99639315 5.54065223 -80.5 7.3125 C-80.2215625 8.29863281 -79.943125 9.28476563 -79.65625 10.30078125 C-79 13 -79 13 -79 16 C-77.68 16 -76.36 16 -75 16 C-75.2165625 15.24074219 -75.433125 14.48148438 -75.65625 13.69921875 C-75.9346875 12.70535156 -76.213125 11.71148437 -76.5 10.6875 C-76.7784375 9.70136719 -77.056875 8.71523437 -77.34375 7.69921875 C-78 5 -78 5 -78 2 C-76.35970825 1.93268677 -76.35970825 1.93268677 -74.6862793 1.86401367 C-70.57986713 1.69213034 -66.47435284 1.50357603 -62.36889648 1.31030273 C-60.60119146 1.22934529 -58.8332807 1.1527459 -57.06518555 1.08081055 C-47.39393687 0.68433583 -38.21134166 0.30222859 -29 -3 C-31.31856917 -4.54571278 -33.50638429 -5.79618552 -36 -7 C-21.8784465 -11.90954944 -12.38830897 -7.25733026 0 0 Z " fill="#F0D498" transform="translate(245,83)"/>
<path d="M0 0 C-0.33 2.64 -0.66 5.28 -1 8 C-0.01 8 0.98 8 2 8 C2 8.99 2 9.98 2 11 C0.68 11 -0.64 11 -2 11 C-3.55010435 20.99257314 -3.55010435 20.99257314 -5 31 C-1.59503056 29.42072141 -0.23509617 28.58619373 1.1875 25.0390625 C1.455625 23.91242188 1.72375 22.78578125 2 21.625 C3.96029869 14.49014767 5.89558512 12.06960992 12 8 C13.90112305 7.77294922 13.90112305 7.77294922 16.01171875 7.8046875 C17.14770508 7.81435547 17.14770508 7.81435547 18.30664062 7.82421875 C19.48516602 7.84935547 19.48516602 7.84935547 20.6875 7.875 C21.48478516 7.88402344 22.28207031 7.89304688 23.10351562 7.90234375 C25.069139 7.92588415 27.03460775 7.96175453 29 8 C28.37927716 13.39968608 27.54276663 18.67991276 26.4375 24 C26.29892578 24.67933594 26.16035156 25.35867187 26.01757812 26.05859375 C25.68107852 27.70628146 25.34093407 29.35322414 25 31 C28.26460973 29.19587357 29.88929795 28.16605307 32 25 C32.60421492 22.61917147 33.1390323 20.22024906 33.625 17.8125 C33.88539063 16.54019531 34.14578125 15.26789063 34.4140625 13.95703125 C34.60742188 12.98121094 34.80078125 12.00539062 35 11 C34.34 11 33.68 11 33 11 C33 10.01 33 9.02 33 8 C33.99 8 34.98 8 36 8 C36.33 5.69 36.66 3.38 37 1 C39.64 0.67 42.28 0.34 45 0 C44.67 2.64 44.34 5.28 44 8 C44.99 8 45.98 8 47 8 C46.67 8.99 46.34 9.98 46 11 C45.01 11.33 44.02 11.66 43 12 C42.01 18.27 41.02 24.54 40 31 C45.85787452 26.97930194 45.85787452 26.97930194 46.77734375 23.82421875 C46.83019531 23.11910156 46.88304687 22.41398437 46.9375 21.6875 C47.82551911 16.10700093 50.93331345 12.75976681 55 9 C58.45365406 7.27317297 62.22358568 7.51034059 66 8 C68.5625 9.75 68.5625 9.75 70 12 C70 13.32 70 14.64 70 16 C71.98 15.34 73.96 14.68 76 14 C75.25 15.9375 75.25 15.9375 74 18 C71.875 18.75 71.875 18.75 70 19 C69.9071875 20.546875 69.9071875 20.546875 69.8125 22.125 C68.70578915 27.40315943 66.53295633 30.14249869 62.125 33.375 C58.8418629 34.34062856 56.4150831 34.40517935 53 34 C50.39889008 32.54762928 48.32433805 30.89741882 46 29 C46 29.66 46 30.32 46 31 C42.28026121 33.84450614 39.62609198 34.3227506 35 34 C34.01 32.02 34.01 32.02 33 30 C31.948125 30.66 30.89625 31.32 29.8125 32 C26.71523382 33.7547012 24.61584603 34.68407898 21 34 C18.6875 32.5 18.6875 32.5 17 31 C15.948125 31.7425 15.948125 31.7425 14.875 32.5 C11.56074794 34.22917499 9.68722891 34.4809429 6 34 C4.125 32.5 4.125 32.5 3 31 C-0.54518884 32.39759905 -0.54518884 32.39759905 -4 34 C-7 34.1875 -7 34.1875 -10 34 C-12 32 -12 32 -12.1953125 28.7421875 C-12.17210938 27.46601563 -12.14890625 26.18984375 -12.125 24.875 C-12.10695313 23.59367187 -12.08890625 22.31234375 -12.0703125 20.9921875 C-12.04710938 20.00476563 -12.02390625 19.01734375 -12 18 C-15.26743202 20.17828801 -15.56062981 20.87389001 -16.875 24.375 C-18.88031139 29.17232186 -21.3207588 31.6603794 -26 34 C-30.14135035 34.39069343 -32.31186812 34.43382227 -35.875 32.1875 C-38.58668635 29.39605817 -38.94285947 27.59426153 -39.3125 23.75 C-38.81071674 17.72860092 -36.25019472 14.36649191 -32.3125 10.0625 C-28.59038266 7.74495524 -26.42836917 7.26738545 -22.125 7.5 C-18.67904528 8.31081288 -17.0472062 10.22636579 -15 13 C-15 13.66 -15 14.32 -15 15 C-13.35 14.67 -11.7 14.34 -10 14 C-10 13.01 -10 12.02 -10 11 C-10.66 11 -11.32 11 -12 11 C-12 10.01 -12 9.02 -12 8 C-10.68 8 -9.36 8 -8 8 C-7.67 5.69 -7.34 3.38 -7 1 C-4 0 -4 0 0 0 Z " fill="#62400C" transform="translate(105,228)"/>
<path d="M0 0 C1.30650009 -0.00807175 2.61300018 -0.01614349 3.95909119 -0.02445984 C6.72345845 -0.03941001 9.48780091 -0.04927832 12.25219727 -0.05688477 C15.03400174 -0.0656556 17.81529208 -0.08632926 20.59692383 -0.1184082 C38.21009105 -0.31727671 55.1057626 0.54477371 72.40234375 4.23828125 C72.40234375 4.56828125 72.40234375 4.89828125 72.40234375 5.23828125 C67.40074858 5.37453356 62.87691467 5.05442732 57.96240234 4.1706543 C10.30281919 -4.08009074 -48.7567771 0.43335843 -90.10546875 26.83984375 C-93.32595523 29.27802582 -94.51348734 30.80213324 -95.28515625 34.80078125 C-94.46978527 38.87763617 -93.64694869 40.41768574 -90.59765625 43.23828125 C-84.29480882 46.8235187 -78.07487606 48.66562245 -71.03515625 50.30078125 C-69.93816406 50.55827148 -68.84117188 50.81576172 -67.7109375 51.08105469 C-56.74822172 53.56656697 -45.7764436 55.13185468 -34.59765625 56.23828125 C-33.56576172 56.34124512 -32.53386719 56.44420898 -31.47070312 56.55029297 C-3.85831163 59.21634602 29.9868347 62.09326042 55.90234375 50.55078125 C56.71477539 50.19628906 57.52720703 49.84179688 58.36425781 49.4765625 C74.61327385 42.32806472 74.61327385 42.32806472 85.54296875 28.859375 C86.48168376 25.99629423 86.81035883 23.42740596 87.02734375 20.42578125 C87.10210937 19.44996094 87.176875 18.47414063 87.25390625 17.46875 C87.32738281 16.36466797 87.32738281 16.36466797 87.40234375 15.23828125 C88.39234375 15.73328125 88.39234375 15.73328125 89.40234375 16.23828125 C89.93340666 25.91542763 89.58744824 32.33573028 83.21484375 39.80078125 C82.28671875 40.60515625 81.35859375 41.40953125 80.40234375 42.23828125 C79.82226562 42.77066406 79.2421875 43.30304687 78.64453125 43.8515625 C72.25934843 49.32631051 65.04010095 52.31231214 57.33496094 55.44726562 C54.34085499 56.67274608 51.37310322 57.95738236 48.40234375 59.23828125 C50.05234375 59.89828125 51.70234375 60.55828125 53.40234375 61.23828125 C42.4868137 71.67922304 16.0793882 67.34219801 2.40234375 67.23828125 C2.61890625 67.99753906 2.83546875 68.75679688 3.05859375 69.5390625 C3.33703125 70.53292969 3.61546875 71.52679688 3.90234375 72.55078125 C4.18078125 73.53691406 4.45921875 74.52304688 4.74609375 75.5390625 C5.40234375 78.23828125 5.40234375 78.23828125 5.40234375 81.23828125 C4.08234375 81.23828125 2.76234375 81.23828125 1.40234375 81.23828125 C0.73108246 78.80196235 0.06518021 76.36439242 -0.59765625 73.92578125 C-0.7884375 73.23548828 -0.97921875 72.54519531 -1.17578125 71.83398438 C-1.97481809 68.88040176 -2.59765625 66.31268906 -2.59765625 63.23828125 C-3.62310547 63.25922852 -4.64855469 63.28017578 -5.70507812 63.30175781 C-25.69256594 63.67347916 -45.01213912 63.81547143 -64.59765625 59.23828125 C-65.4798584 59.04041016 -66.36206055 58.84253906 -67.27099609 58.63867188 C-91.88864728 53.03406387 -91.88864728 53.03406387 -98.5859375 44.1875 C-100.5262183 40.44927559 -100.69751103 37.28042269 -99.59765625 33.23828125 C-92.87789157 19.82449812 -70.08623924 12.76793732 -57.14282227 8.25 C-45.95769209 4.54105919 -34.24815823 2.81223353 -22.59765625 1.23828125 C-21.67097389 1.10786186 -21.67097389 1.10786186 -20.72557068 0.97480774 C-13.82562081 0.09383558 -6.94861976 0.04158101 0 0 Z " fill="#AE7105" transform="translate(164.59765625,17.76171875)"/>
<path d="M0 0 C7.79659876 -0.64179319 13.43641756 -0.8043431 19.70703125 4.19921875 C21 6 21 6 21.44921875 8.51953125 C21 11 21 11 19.51953125 12.66015625 C16.05364776 14.50325398 12.47031823 15.48313888 8.6875 16.4375 C7.8622583 16.64995361 7.0370166 16.86240723 6.18676758 17.08129883 C-3.27853864 19.43683833 -12.86280908 21.06631285 -22.49121094 22.59326172 C-24.5744478 22.9310072 -26.65153689 23.30641722 -28.7265625 23.69140625 C-44.69453077 26.46928881 -68.2989728 28.36939667 -83 20 C-83 19.01 -83 18.02 -83 17 C-65.11325094 8.36405397 -44.81516396 5.57209779 -25 6 C-24.731875 6.804375 -24.46375 7.60875 -24.1875 8.4375 C-23.5996875 9.7059375 -23.5996875 9.7059375 -23 11 C-22.01 11.33 -21.02 11.66 -20 12 C-20.495 9.03 -20.495 9.03 -21 6 C-18.26750659 5.24722485 -15.71899317 4.83358297 -12.890625 4.68359375 C-12.13652344 4.64169922 -11.38242188 4.59980469 -10.60546875 4.55664062 C-9.82816406 4.51732422 -9.05085938 4.47800781 -8.25 4.4375 C-7.45722656 4.39431641 -6.66445312 4.35113281 -5.84765625 4.30664062 C-3.89862185 4.20097009 -1.94933252 4.10002034 0 4 C0 2.68 0 1.36 0 0 Z " fill="#EFD397" transform="translate(198,115)"/>
<path d="M0 0 C42.37694719 -0.59084118 42.37694719 -0.59084118 58.5546875 2.34375 C63.69144029 3.24567642 68.80145955 3.13145455 74 3 C74 3.66 74 4.32 74 5 C74.79664063 5.34611328 74.79664063 5.34611328 75.609375 5.69921875 C80.11392159 7.77887256 83.66542527 9.42812449 86 14 C86.91605925 20.06889251 86.58828032 25.75764435 83.4296875 31.10546875 C72.90763849 45.04862113 51.93989529 53.57545518 34.97900391 56.06933594 C31.65978231 56.47717516 28.33435869 56.75716381 25 57 C24.32501465 57.05494629 23.6500293 57.10989258 22.95458984 57.16650391 C11.6388654 58.07229625 0.34573759 58.11208742 -11 58 C-11 57.67 -11 57.34 -11 57 C-9.33546212 56.51348985 -7.66822271 56.03622085 -6 55.5625 C-5.071875 55.29566406 -4.14375 55.02882812 -3.1875 54.75390625 C3.70231186 53.12433065 10.58127211 52.83196949 17.625 52.5625 C38.69561504 51.80352011 38.69561504 51.80352011 56.6875 41.7578125 C60.29744143 36.92306952 59.23333969 29.86264795 58.43359375 24.1953125 C57.08084855 17.34627824 54.74474943 12.19960992 49 8 C34.24061404 0.62030702 16.06495372 1.34781778 0 1 C0 0.67 0 0.34 0 0 Z " fill="#DEAF5A" transform="translate(166,19)"/>
<path d="M0 0 C2.95970589 2.70601681 3.17671538 4.86533688 3.3671875 8.7890625 C3.1875 11 3.1875 11 1.875 13.75 C-9.64255829 23.39260694 -23.67068856 23.3734365 -37.95605469 23.37060547 C-40.44013793 23.37500467 -42.92247629 23.41151162 -45.40625 23.44921875 C-53.8056891 23.506667 -60.37373447 23.38696429 -67.8125 19 C-67.6484375 16.671875 -67.6484375 16.671875 -66.8125 14 C-56.68303263 7.29219218 -44.45060811 7.79740237 -32.8125 8 C-32.1525 9.98 -31.4925 11.96 -30.8125 14 C-29.8225 13.67 -28.8325 13.34 -27.8125 13 C-28.3075 10.525 -28.3075 10.525 -28.8125 8 C-27.99265625 7.81824219 -27.1728125 7.63648438 -26.328125 7.44921875 C-25.25046875 7.19785156 -24.1728125 6.94648438 -23.0625 6.6875 C-21.46148437 6.32205078 -21.46148437 6.32205078 -19.828125 5.94921875 C-16.84497701 5.01022269 -15.07109472 4.13722164 -12.8125 2 C-12.4825 1.01 -12.1525 0.02 -11.8125 -1 C-7.42410111 -2.46279963 -4.28651365 -1.52409374 0 0 Z " fill="#EED295" transform="translate(214.8125,137)"/>
<path d="M0 0 C0.99 0.495 0.99 0.495 2 1 C2.52382349 5.27789184 2.38715487 8.09945819 -0.25 11.5 C-10.18529002 21.68595101 -26.32469114 27.23290326 -40.36328125 28.15527344 C-44.30079436 28.14285786 -48.13374708 27.72574714 -52 27 C-52 28.32 -52 29.64 -52 31 C-54.29308963 32.14654482 -55.79909656 32.19729117 -58.3515625 32.31640625 C-59.20234375 32.35830078 -60.053125 32.40019531 -60.9296875 32.44335938 C-61.81914062 32.48267578 -62.70859375 32.52199219 -63.625 32.5625 C-64.97078125 32.62727539 -64.97078125 32.62727539 -66.34375 32.69335938 C-68.56234283 32.79956861 -70.7810488 32.90161194 -73 33 C-72.505 35.97 -72.505 35.97 -72 39 C-73.890625 38.81640625 -73.890625 38.81640625 -76 38 C-77.046875 35.71484375 -77.046875 35.71484375 -77.75 32.9375 C-77.99234375 32.01839844 -78.2346875 31.09929687 -78.484375 30.15234375 C-78.65453125 29.44207031 -78.8246875 28.73179688 -79 28 C-80.15371094 28.01160156 -81.30742187 28.02320312 -82.49609375 28.03515625 C-92.37950717 28.10303401 -102.24719774 27.97284635 -112.125 27.625 C-113.15423584 27.59414307 -114.18347168 27.56328613 -115.24389648 27.53149414 C-125.09531736 27.14765182 -133.30607014 26.54802541 -141 20 C-142.60725635 16.78548731 -142.05748185 13.56387464 -142 10 C-141.34 10 -140.68 10 -140 10 C-139.79375 10.9075 -139.5875 11.815 -139.375 12.75 C-137.60447062 16.93488762 -136.02999997 17.94836365 -132 20 C-126.22296274 21.72122623 -120.61335146 22.29534416 -114.61303711 22.2746582 C-113.43529724 22.2823246 -113.43529724 22.2823246 -112.23376465 22.29014587 C-109.66487776 22.30392495 -107.09626297 22.30309295 -104.52734375 22.30078125 C-102.71765547 22.30467662 -100.90796809 22.309013 -99.09828186 22.31376648 C-95.3116662 22.32120519 -91.5251438 22.32095601 -87.73852539 22.31567383 C-82.92998652 22.30990431 -78.121836 22.32676058 -73.31336117 22.3500185 C-69.57511735 22.36489125 -65.83696393 22.36560896 -62.09869576 22.36250877 C-60.32840778 22.36301594 -58.55811391 22.36813755 -56.78785515 22.37832069 C-38.43844052 22.4708761 -17.60477012 21.4444164 -3.6796875 8.00390625 C-1.58259845 5.50203024 -0.56241962 3.2138264 0 0 Z " fill="#AF730A" transform="translate(250,88)"/>
<path d="M0 0 C4.34378166 2.20146272 8.24010358 4.7381582 11.58203125 8.30859375 C12.14453125 12.24609375 12.14453125 12.24609375 11.58203125 15.30859375 C-0.19455944 22.80278782 -13.74924149 25.66826792 -27.54296875 25.62109375 C-28.49300781 25.63720703 -29.44304687 25.65332031 -30.421875 25.66992188 C-36.19074054 25.67392248 -40.34521392 25.12754744 -45.41796875 22.30859375 C-46.85546875 20.12109375 -46.85546875 20.12109375 -47.41796875 18.30859375 C-41.1422881 12.42514314 -33.61828025 12.02468123 -25.41796875 11.68359375 C-24.64324219 11.64492187 -23.86851562 11.60625 -23.0703125 11.56640625 C-21.1865346 11.47338018 -19.30228619 11.389962 -17.41796875 11.30859375 C-17.08796875 12.62859375 -16.75796875 13.94859375 -16.41796875 15.30859375 C-15.09796875 15.30859375 -13.77796875 15.30859375 -12.41796875 15.30859375 C-12.91296875 12.83359375 -12.91296875 12.83359375 -13.41796875 10.30859375 C-11.43796875 9.64859375 -9.45796875 8.98859375 -7.41796875 8.30859375 C-8.73796875 8.30859375 -10.05796875 8.30859375 -11.41796875 8.30859375 C-12.40796875 7.97859375 -13.39796875 7.64859375 -14.41796875 7.30859375 C-14.41796875 6.64859375 -14.41796875 5.98859375 -14.41796875 5.30859375 C-13.73734375 5.06109375 -13.05671875 4.81359375 -12.35546875 4.55859375 C-9.94702046 3.53372214 -8.08993707 2.46538286 -5.91796875 1.05859375 C-2.41796875 -0.69140625 -2.41796875 -0.69140625 0 0 Z " fill="#EED295" transform="translate(212.41796875,159.69140625)"/>
<path d="M0 0 C1.02806763 0.5093811 1.02806763 0.5093811 2.0769043 1.02905273 C5.97694588 3.02784189 9.56175179 5.06550797 12.75 8.125 C13.02354047 11.74941126 12.57221584 13.95998723 10.45703125 16.95703125 C1.05300091 27.20988143 -13.86016789 30.96008461 -27.25 32.125 C-33.91625626 32.33908938 -40.58271416 32.24465219 -47.25 32.125 C-44.8162849 29.6912849 -42.91583105 29.20083697 -39.6484375 28.13671875 C-37.95267578 27.57114258 -37.95267578 27.57114258 -36.22265625 26.99414062 C-33.84884549 26.2144688 -31.4738647 25.43834916 -29.09765625 24.66601562 C-18.22859562 21.46926512 -18.22859562 21.46926512 -10.07568359 14.1862793 C-8.76983173 10.92628306 -8.76290516 8.59555072 -9.25 5.125 C-13.31810382 0.6500858 -17.56571011 -1.01290504 -23.25 -2.875 C-15.22705983 -8.22362678 -7.75981389 -3.85650475 0 0 Z " fill="#E0B05A" transform="translate(237.25,78.875)"/>
<path d="M0 0 C0.99 0.495 0.99 0.495 2 1 C2.31944345 4.51387796 2.43883512 6.37550387 0.375 9.3125 C-2.43707115 11.31055055 -4.62132893 11.54951052 -8 12 C-8.33 12.66 -8.66 13.32 -9 14 C-11.31 14 -13.62 14 -16 14 C-16.0825 14.598125 -16.165 15.19625 -16.25 15.8125 C-17.23815248 18.69461141 -18.43955286 19.38656756 -21 21 C-23.578125 21.73046875 -23.578125 21.73046875 -26.25 22.1875 C-27.14203125 22.34605469 -28.0340625 22.50460938 -28.953125 22.66796875 C-29.62859375 22.77753906 -30.3040625 22.88710937 -31 23 C-31 23.99 -31 24.98 -31 26 C-31.495 27.485 -31.495 27.485 -32 29 C-32.99 29 -33.98 29 -35 29 C-36.32 26.03 -37.64 23.06 -39 20 C-39.495 20.495 -39.495 20.495 -40 21 C-40 21.33 -40 21.66 -40 22 C-46.25811241 22.07506963 -52.51595338 22.12902956 -58.77441406 22.16479492 C-60.8962054 22.17973033 -63.0179667 22.20008606 -65.13964844 22.22631836 C-98.50333689 22.62800583 -98.50333689 22.62800583 -106 16 C-105.67 14.35 -105.34 12.7 -105 11 C-104.67 11.66 -104.34 12.32 -104 13 C-76.32464676 21.16259073 -48.01393189 16.27943889 -20.375 10.5 C-19.45775146 10.31091064 -18.54050293 10.12182129 -17.59545898 9.92700195 C-8.88298227 8.00233967 -8.88298227 8.00233967 -1 4 C-0.20257416 1.94506444 -0.20257416 1.94506444 0 0 Z " fill="#B37304" transform="translate(219,122)"/>
<path d="M0 0 C3.79412055 2.59110672 3.79412055 2.59110672 4.5625 5.75 C4.48259711 10.70397889 4.12309323 12.90110168 1.375 17.0625 C-2.25805348 20.53408443 -5.32240002 22.75 -10.4375 22.75 C-10.57027344 23.66523438 -10.70304687 24.58046875 -10.83984375 25.5234375 C-11.01644531 26.71195313 -11.19304688 27.90046875 -11.375 29.125 C-11.54902344 30.30835938 -11.72304688 31.49171875 -11.90234375 32.7109375 C-12.4375 35.75 -12.4375 35.75 -13.4375 37.75 C-15.7475 37.75 -18.0575 37.75 -20.4375 37.75 C-19.7480043 30.27650061 -18.38850009 23.03454667 -16.875 15.6875 C-16.64103516 14.53572266 -16.40707031 13.38394531 -16.16601562 12.19726562 C-15.59336745 9.38077154 -15.01711941 6.56506618 -14.4375 3.75 C-18.12826798 6.12290911 -18.12826798 6.12290911 -19.92578125 9.890625 C-19.86777344 10.58671875 -19.80976562 11.2828125 -19.75 12 C-19.646875 13.2375 -19.54375 14.475 -19.4375 15.75 C-22.08488916 17.2106285 -23.33198334 17.75 -26.4375 17.75 C-26.94367843 13.70057252 -27.24383841 11.10589643 -25.125 7.54296875 C-18.42840824 -0.51386821 -9.99577151 -3.634826 0 0 Z " fill="#62410C" transform="translate(65.4375,224.25)"/>
<path d="M0 0 C2.31 0 4.62 0 7 0 C7.33 4.62 7.66 9.24 8 14 C10.31 9.38 12.62 4.76 15 0 C17.31 0 19.62 0 22 0 C22 5.28 22 10.56 22 16 C22.66 16 23.32 16 24 16 C24.11214844 15.29488281 24.22429687 14.58976563 24.33984375 13.86328125 C25.06314908 10.72610488 26.19457691 8.09872094 27.5625 5.1875 C28.01753906 4.21167969 28.47257812 3.23585937 28.94140625 2.23046875 C29.29074219 1.49441406 29.64007813 0.75835937 30 0 C31.65 0 33.3 0 35 0 C31.0742756 8.70172089 27.04837658 17.35490765 23 26 C20.69 26 18.38 26 16 26 C15.67 20.72 15.34 15.44 15 10 C12.36 15.28 9.72 20.56 7 26 C4.69 26 2.38 26 0 26 C0 17.42 0 8.84 0 0 Z " fill="#61400B" transform="translate(220,236)"/>
<path d="M0 0 C2.31 0 4.62 0 7 0 C5.7399707 7.68081691 4.41621567 15.34640892 3 23 C6.98175544 20.89851796 9.35039045 18.63094642 12 15 C13.32 15.33 14.64 15.66 16 16 C16 16.99 16 17.98 16 19 C15.34 19 14.68 19 14 19 C14 20.32 14 21.64 14 23 C19.01535052 22.67039784 19.01535052 22.67039784 23 20 C22.98337963 17.95691143 22.98337963 17.95691143 22 16 C20.18051618 14.69385744 20.18051618 14.69385744 18 13.6875 C14.5571888 11.69104036 14.12534665 11.38263715 12.8125 7.375 C13 4 13 4 14.3125 2.125 C18.64243175 -0.76162116 22.93047135 -0.42975596 28 0 C31.125 1.125 31.125 1.125 33 3 C33.3125 6.1875 33.3125 6.1875 33 9 C31.02 8.34 29.04 7.68 27 7 C27 5.68 27 4.36 27 3 C25.02 3.33 23.04 3.66 21 4 C21.34622556 6.88311469 21.78767847 7.82420259 24.06640625 9.7109375 C24.89011719 10.26007813 25.71382813 10.80921875 26.5625 11.375 C30.88962322 14.59791315 30.88962322 14.59791315 31.875 18.1875 C30.73576254 21.84933469 29.21161539 22.98340429 26 25 C19.65443939 27.11518687 14.2124803 26.07082677 8 24 C7.01 24.66 6.02 25.32 5 26 C2 26.375 2 26.375 -1 26 C-3.1229154 23.86241007 -3.95391785 22.61810194 -4.1796875 19.58984375 C-3.40459905 12.84259939 -1.99661069 6.49212406 0 0 Z " fill="#613F0B" transform="translate(257,236)"/>
<path d="M0 0 C2.5625 1.75 2.5625 1.75 4 4 C4 5.32 4 6.64 4 8 C5.98 7.34 7.96 6.68 10 6 C9.25 7.9375 9.25 7.9375 8 10 C5.875 10.75 5.875 10.75 4 11 C3.9071875 12.546875 3.9071875 12.546875 3.8125 14.125 C2.70578915 19.40315943 0.53295633 22.14249869 -3.875 25.375 C-7.21994965 26.35880872 -9.51013746 26.46531501 -13 26 C-15.8972287 24.25455924 -18.45457092 22.22146538 -21 20 C-19.45559957 11.99853489 -17.12050143 6.51582538 -11 1 C-7.54634594 -0.72682703 -3.77641432 -0.48965941 0 0 Z " fill="#61400B" transform="translate(171,236)"/>
<path d="M0 0 C7.79659876 -0.64179319 13.43641756 -0.8043431 19.70703125 4.19921875 C21 6 21 6 21.44921875 8.51953125 C21 11 21 11 19.51953125 12.66015625 C16.05364776 14.50325398 12.47031823 15.48313888 8.6875 16.4375 C7.8622583 16.64995361 7.0370166 16.86240723 6.18676758 17.08129883 C-3.27853864 19.43683833 -12.86280908 21.06631285 -22.49121094 22.59326172 C-24.5744478 22.9310072 -26.65153689 23.30641722 -28.7265625 23.69140625 C-40.04951026 25.66121346 -51.54843165 25.18347349 -63 25 C-63 24.67 -63 24.34 -63 24 C-62.10925781 24.020625 -61.21851563 24.04125 -60.30078125 24.0625 C-46.37981758 23.84434582 -33.69203759 19.89548171 -20.41503906 15.97290039 C-16.1797537 14.76632245 -11.91512675 13.72412908 -7.62670898 12.72485352 C-4.14591115 11.7643099 -0.97922805 10.35247965 2.2578125 8.76953125 C4 8 4 8 6 8 C5.29231642 5.04199472 5.29231642 5.04199472 4 2 C1.98942034 0.78586335 1.98942034 0.78586335 0 0 Z " fill="#DEAF58" transform="translate(198,115)"/>
<path d="M0 0 C-0.33 2.64 -0.66 5.28 -1 8 C-0.01 8 0.98 8 2 8 C1.67 8.99 1.34 9.98 1 11 C0.01 11.33 -0.98 11.66 -2 12 C-2.99 18.27 -3.98 24.54 -5 31 C-3.68 30.01 -2.36 29.02 -1 28 C-0.34 28 0.32 28 1 28 C1 28.99 1 29.98 1 31 C-2.66486096 33.91033076 -5.39374606 34.32136655 -10 34 C-10.66 32.68 -11.32 31.36 -12 30 C-13.5778125 30.99 -13.5778125 30.99 -15.1875 32 C-18.29861626 33.75274155 -20.37838631 34.76244499 -24 34 C-26.8125 32 -26.8125 32 -29 30 C-28.40763555 27.5318148 -27.73419235 25.11951217 -27 22.6875 C-26.01851665 19.06828015 -25.21616931 15.74693477 -25 12 C-25.99 11.01 -26.98 10.02 -28 9 C-24.37 9 -20.74 9 -17 9 C-16.83664415 14.23419357 -17.39447963 18.86306192 -18.5 23.9375 C-18.71462891 24.96327148 -18.71462891 24.96327148 -18.93359375 26.00976562 C-19.28283771 27.67449514 -19.64052946 29.33744875 -20 31 C-16.73539027 29.19587357 -15.11070205 28.16605307 -13 25 C-12.39578508 22.61917147 -11.8609677 20.22024906 -11.375 17.8125 C-11.11460937 16.54019531 -10.85421875 15.26789063 -10.5859375 13.95703125 C-10.39257812 12.98121094 -10.19921875 12.00539062 -10 11 C-10.66 11 -11.32 11 -12 11 C-12 10.01 -12 9.02 -12 8 C-11.01 8 -10.02 8 -9 8 C-8.67 5.69 -8.34 3.38 -8 1 C-5.10765685 0.17361624 -3.11257569 0 0 0 Z " fill="#62410C" transform="translate(150,228)"/>
<path d="M0 0 C2.82698031 0.56637257 5.39124399 0.73317132 8.26171875 0.453125 C9.25171875 -0.206875 10.24171875 -0.866875 11.26171875 -1.546875 C13.44921875 -1.171875 13.44921875 -1.171875 15.26171875 -0.546875 C8.02208144 5.59107837 8.02208144 5.59107837 2.13671875 5.515625 C1.22664063 5.50660156 0.3165625 5.49757812 -0.62109375 5.48828125 C-1.31976563 5.47667969 -2.0184375 5.46507812 -2.73828125 5.453125 C-2.83625 6.08734375 -2.93421875 6.7215625 -3.03515625 7.375 C-4.65057097 17.45741601 -6.69894994 27.44941826 -8.73828125 37.453125 C-11.37828125 37.453125 -14.01828125 37.453125 -16.73828125 37.453125 C-15.95036806 33.28573959 -15.15727389 29.11935603 -14.36328125 24.953125 C-14.03070313 23.19355469 -14.03070313 23.19355469 -13.69140625 21.3984375 C-12.5387093 15.36372994 -11.31138575 9.39269712 -9.73828125 3.453125 C-11.03765625 3.5975 -12.33703125 3.741875 -13.67578125 3.890625 C-14.40667969 3.97183594 -15.13757813 4.05304688 -15.890625 4.13671875 C-17.74968354 4.27199114 -17.74968354 4.27199114 -18.73828125 5.453125 C-18.81033636 7.13921466 -18.82214193 8.82813159 -18.80078125 10.515625 C-18.78724609 11.89427734 -18.78724609 11.89427734 -18.7734375 13.30078125 C-18.76183594 14.01105469 -18.75023437 14.72132813 -18.73828125 15.453125 C-21.38567041 16.9137535 -22.63276459 17.453125 -25.73828125 17.453125 C-26.30856191 5.39274504 -26.30856191 5.39274504 -22.73828125 1.453125 C-16.45813241 -4.06579368 -7.44257413 -1.63573058 0 0 Z " fill="#644310" transform="translate(217.73828125,224.546875)"/>
<path d="M0 0 C3 2 3 2 3.3984375 3.98828125 C3.39070313 4.75527344 3.38296875 5.52226562 3.375 6.3125 C3.38660156 7.45138672 3.38660156 7.45138672 3.3984375 8.61328125 C2.65863287 13.04485605 0.85077951 15.39212941 -2.77734375 17.984375 C-3.82019531 18.56703125 -4.86304688 19.1496875 -5.9375 19.75 C-6.97777344 20.34296875 -8.01804688 20.9359375 -9.08984375 21.546875 C-11.49438392 22.7475313 -13.39810784 23.48299335 -16 24 C-16.99 24.33 -17.98 24.66 -19 25 C-18.505 25.99 -18.505 25.99 -18 27 C-16.35 27 -14.7 27 -13 27 C-12.67 26.34 -12.34 25.68 -12 25 C-12 25.99 -12 26.98 -12 28 C-13.98 28.66 -15.96 29.32 -18 30 C-17.505 32.475 -17.505 32.475 -17 35 C-18.32 35 -19.64 35 -21 35 C-21.17313721 34.36046387 -21.34627441 33.72092773 -21.5246582 33.06201172 C-22.67664452 30.06457077 -23.6836203 28.24977113 -26 26 C-31.37942708 24.73268205 -36.68981682 24.96349554 -42.1875 25.125 C-45.11854898 25.16985155 -48.04909222 25.19025261 -50.98046875 25.1953125 C-51.68299774 25.19766907 -52.38552673 25.20002563 -53.10934448 25.20245361 C-59.28793293 25.14891979 -65.81388388 24.62103137 -70.74682617 20.56298828 C-72.5003311 18.37597512 -72.22050358 16.71954418 -72 14 C-71.34 13.67 -70.68 13.34 -70 13 C-69.67 13.99 -69.34 14.98 -69 16 C-63.36450817 18.65628111 -58.68239461 19.44075622 -52.51171875 19.36328125 C-51.33595024 19.36402901 -51.33595024 19.36402901 -50.13642883 19.36479187 C-48.48846892 19.36246657 -46.84050441 19.35283013 -45.19262695 19.33618164 C-42.70425718 19.31265841 -40.21696806 19.3156245 -37.72851562 19.32226562 C-22.14660137 19.40334402 -22.14660137 19.40334402 -7.5 14.625 C-6.7059375 14.22539062 -5.911875 13.82578125 -5.09375 13.4140625 C-2.73705165 11.82241175 -1.4361549 10.45286138 0 8 C0.35868159 5.87027179 0.35868159 5.87027179 0.1875 3.75 C0.125625 2.5125 0.06375 1.275 0 0 Z " fill="#B17203" transform="translate(217,140)"/>
<path d="M0 0 C10.06394247 -0.1176305 19.96557967 0.12198822 30 1 C30.495 2.98 30.495 2.98 31 5 C29.69289062 5.02578125 28.38578125 5.0515625 27.0390625 5.078125 C10.04538904 5.55670731 -5.04712809 7.42048333 -20 16 C-21.32882913 16.6756 -22.66049463 17.34582296 -24 18 C-23.29347881 24.92524067 -23.29347881 24.92524067 -19.5 30.5 C-11.7385225 33.8263475 -3.53316432 34.3334529 4.8203125 34.6328125 C5.80498505 34.67437469 6.78965759 34.71593689 7.8041687 34.75875854 C10.91086335 34.88821316 14.01785915 35.00679355 17.125 35.125 C19.2474254 35.21151719 21.36982176 35.29875012 23.4921875 35.38671875 C28.66115968 35.59941478 33.83043084 35.80236804 39 36 C39.495 38.475 39.495 38.475 40 41 C37.70855058 41.29345538 35.41687766 41.58491925 33.125 41.875 C32.41118164 41.96595947 31.69736328 42.05691895 30.96191406 42.15063477 C27.09542697 42.63667148 23.22951007 43.08780305 19.3515625 43.47265625 C10.66212209 44.3428868 2.42415544 45.58323409 -6 48 C-7.33200382 48.33860703 -8.66486023 48.6739775 -10 49 C-10.33 48.34 -10.66 47.68 -11 47 C4.69696275 41.26289117 21.35438683 39.30962895 38 40 C38 39.34 38 38.68 38 38 C36.14375 38.01740234 36.14375 38.01740234 34.25 38.03515625 C24.24266182 38.09968188 14.25129728 37.99255704 4.25 37.625 C3.26386719 37.59414307 2.27773437 37.56328613 1.26171875 37.53149414 C-14.53466229 36.88540066 -14.53466229 36.88540066 -20.4375 32.0625 C-21.07558594 31.55847656 -21.71367188 31.05445312 -22.37109375 30.53515625 C-25.18250545 27.88555242 -25.9877527 26.07348378 -26.625 22.25 C-26.4744196 18.67535215 -25.57851937 16.9079054 -23.0625 14.375 C-13.66421449 7.08006081 -0.51395025 4.45746206 11 3 C7.37 2.34 3.74 1.68 0 1 C0 0.67 0 0.34 0 0 Z " fill="#72511D" transform="translate(132,80)"/>
<path d="M0 0 C0.78826172 0.01353516 1.57652344 0.02707031 2.38867188 0.04101562 C4.32191169 0.07616544 6.25479682 0.12996639 8.1875 0.1875 C7.8575 1.5075 7.5275 2.8275 7.1875 4.1875 C7.1875 3.1975 7.1875 2.2075 7.1875 1.1875 C2.7325 1.6825 2.7325 1.6825 -1.8125 2.1875 C-1.1525 2.8475 -0.4925 3.5075 0.1875 4.1875 C0.015625 7.15625 0.015625 7.15625 -0.5625 10.6875 C-0.74296875 11.8528125 -0.9234375 13.018125 -1.109375 14.21875 C-1.8125 17.1875 -1.8125 17.1875 -3.8125 19.1875 C-3.93625 20.0125 -4.06 20.8375 -4.1875 21.6875 C-4.8125 24.1875 -4.8125 24.1875 -6.5 25.5 C-9.44527405 26.37562202 -11.75505134 26.5127605 -14.8125 26.1875 C-16.6875 24.6875 -16.6875 24.6875 -17.8125 23.1875 C-19.7925 23.8475 -21.7725 24.5075 -23.8125 25.1875 C-23.8125 24.1975 -23.8125 23.2075 -23.8125 22.1875 C-23.19375 21.65125 -22.575 21.115 -21.9375 20.5625 C-19.66291543 18.02031725 -19.41043788 17.05223616 -18.8125 13.8125 C-17.82530887 8.59326344 -15.97205435 4.89815822 -11.7265625 1.53515625 C-7.73610689 -0.31029574 -4.33406228 -0.14168351 0 0 Z " fill="#664512" transform="translate(125.8125,235.8125)"/>
<path d="M0 0 C1.30650009 -0.00807175 2.61300018 -0.01614349 3.95909119 -0.02445984 C6.72345845 -0.03941001 9.48780091 -0.04927832 12.25219727 -0.05688477 C15.03400174 -0.0656556 17.81529208 -0.08632926 20.59692383 -0.1184082 C38.21009105 -0.31727671 55.1057626 0.54477371 72.40234375 4.23828125 C72.40234375 4.56828125 72.40234375 4.89828125 72.40234375 5.23828125 C67.40074858 5.37453356 62.87691467 5.05442732 57.96240234 4.1706543 C10.92872681 -3.97173469 -46.16611721 0.63830495 -87.59765625 25.23828125 C-90.08871853 27.12653839 -92.30664702 29.10710988 -94.59765625 31.23828125 C-95.25765625 31.23828125 -95.91765625 31.23828125 -96.59765625 31.23828125 C-97.1247484 38.35915524 -97.1247484 38.35915524 -95.28515625 45.11328125 C-87.04584533 51.62808524 -76.60684561 53.8204069 -66.59765625 56.23828125 C-66.59765625 56.56828125 -66.59765625 56.89828125 -66.59765625 57.23828125 C-71.8761403 57.48347535 -76.21471899 56.71943738 -81.16015625 54.98828125 C-81.79373047 54.78332031 -82.42730469 54.57835937 -83.08007812 54.3671875 C-90.03421339 52.00378417 -95.59844005 48.47235356 -99.59765625 42.23828125 C-100.65697958 38.2173286 -100.44409352 34.93766685 -98.58203125 31.19921875 C-83.37941676 11.11576487 -48.77602386 5.17610041 -25.56860352 1.63964844 C-24.58819092 1.50719727 -23.60777832 1.37474609 -22.59765625 1.23828125 C-21.67097389 1.10786186 -21.67097389 1.10786186 -20.72557068 0.97480774 C-13.82562081 0.09383558 -6.94861976 0.04158101 0 0 Z " fill="#74531E" transform="translate(164.59765625,17.76171875)"/>
<path d="M0 0 C2.14015445 1.69428894 2.92592939 2.68725741 3.5625 5.375 C2.89247622 8.50177766 1.65450093 9.87210799 -0.8671875 11.796875 C-5.27029895 14.28068146 -10.1653658 15.59967715 -15 17 C-14.62746094 17.62648437 -14.25492188 18.25296875 -13.87109375 18.8984375 C-13.39800781 19.71570313 -12.92492187 20.53296875 -12.4375 21.375 C-11.96183594 22.18710938 -11.48617187 22.99921875 -10.99609375 23.8359375 C-10.50302734 24.90714844 -10.50302734 24.90714844 -10 26 C-10.33 26.66 -10.66 27.32 -11 28 C-11.44988281 27.32710937 -11.89976562 26.65421875 -12.36328125 25.9609375 C-14.41425686 23.24000393 -16.28644872 21.069731 -19 19 C-21.91255638 18.81912468 -24.07484897 19.44097689 -26.87890625 20.23046875 C-36.68448139 22.64811368 -50.24608138 22.27183608 -59.1875 17.1875 C-61 15 -61 15 -61.3125 12.25 C-61.209375 11.5075 -61.10625 10.765 -61 10 C-60.34 9.67 -59.68 9.34 -59 9 C-58.2575 9.804375 -57.515 10.60875 -56.75 11.4375 C-50.27161896 17.47417324 -38.89226241 15.36669521 -30.56298828 15.140625 C-25.71983731 14.87489296 -21.50815244 13.69862023 -17 12 C-14.85456903 11.31124541 -12.70872453 10.62377778 -10.5625 9.9375 C-5.60651113 8.35411155 -5.60651113 8.35411155 -1 6 C-0.18415432 2.94091587 -0.18415432 2.94091587 0 0 Z " fill="#B17203" transform="translate(224,169)"/>
<path d="M0 0 C4.33602158 0.50418856 7.72497501 1.00569144 11 4 C12.40655991 8.23603508 12.62088101 11.69910646 10.6875 15.75 C-2.49390761 26.78559707 -18.84241692 25.27795234 -35 25 C-31.18225936 22.91978722 -27.64752877 22.51708495 -23.375 22.125 C-14.69469387 21.17920155 -6.4018915 19.4018915 0 13 C1.95937402 10.32812634 2.02907082 9.28489399 1.6875 5.9375 C1.03889786 2.96383182 1.03889786 2.96383182 0 0 Z " fill="#DFB05A" transform="translate(206,135)"/>
<path d="M0 0 C-2.64 1.65 -5.28 3.3 -8 5 C-7.67 6.65 -7.34 8.3 -7 10 C-5.12577848 10.48220263 -3.25058246 10.96061833 -1.375 11.4375 C-0.33085938 11.70433594 0.71328125 11.97117188 1.7890625 12.24609375 C8.16897808 13.74405446 14.14212229 14.15970056 20.66796875 14.16796875 C21.58459793 14.17129715 22.50122711 14.17462555 23.44563293 14.17805481 C25.37447612 14.18309895 27.30332796 14.18546392 29.23217773 14.18530273 C32.18813234 14.18750047 35.14372015 14.20571328 38.09960938 14.22460938 C39.97656123 14.22754153 41.85351484 14.22952752 43.73046875 14.23046875 C44.6148613 14.23765427 45.49925385 14.24483978 46.41044617 14.25224304 C47.64236443 14.2476281 47.64236443 14.2476281 48.89916992 14.24291992 C49.98121956 14.24505745 49.98121956 14.24505745 51.08512878 14.24723816 C53.32822897 14.10154983 53.32822897 14.10154983 56 12 C56.99 12.33 57.98 12.66 59 13 C59 13.99 59 14.98 59 16 C58.42668945 16.03440186 57.85337891 16.06880371 57.26269531 16.10424805 C39.30056669 16.6942537 39.30056669 16.6942537 24 25 C23.49985047 27.45741537 23.49985047 27.45741537 24 30 C27.85313098 34.33477235 34.39431973 34.89458724 39.88989258 35.25537109 C41.22470932 35.26965296 42.55963958 35.27542056 43.89453125 35.2734375 C45.35873202 35.29369632 46.82292471 35.31454644 48.28710938 35.3359375 C50.56281494 35.35864765 52.83819937 35.37506543 55.11401367 35.38085938 C57.3330859 35.39035375 59.55076945 35.42404556 61.76953125 35.4609375 C63.08542236 35.46915527 64.40131348 35.47737305 65.75708008 35.48583984 C69 36 69 36 70.9519043 37.90869141 C72 40 72 40 72 42 C68.7 42 65.4 42 62 42 C62 41.67 62 41.34 62 41 C64.31 41 66.62 41 69 41 C68.67 40.01 68.34 39.02 68 38 C66.52575562 37.97812622 66.52575562 37.97812622 65.02172852 37.95581055 C61.33680837 37.8973541 57.65246944 37.82012942 53.96801758 37.73754883 C52.38054922 37.70452021 50.79296965 37.67642131 49.20532227 37.65356445 C30.05566893 37.37044595 30.05566893 37.37044595 22.375 32.25 C21 30 21 30 20.75 26.5625 C22.13313852 22.62055521 22.6521717 22.26671703 26.078125 20.27734375 C26.8093457 19.84542725 27.54056641 19.41351074 28.29394531 18.96850586 C28.85694336 18.64889893 29.41994141 18.32929199 30 18 C29.26998779 17.95512451 28.53997559 17.91024902 27.7878418 17.86401367 C24.42019927 17.65025848 21.0539689 17.41897891 17.6875 17.1875 C16.53958984 17.11724609 15.39167969 17.04699219 14.20898438 16.97460938 C-3.88374587 15.69325454 -3.88374587 15.69325454 -9.2590332 11.04760742 C-11 9 -11 9 -11.75 6.5625 C-10.65512656 2.82168241 -8.27499556 1.78660932 -5.04296875 -0.1796875 C-3 -1 -3 -1 0 0 Z " fill="#765219" transform="translate(122,129)"/>
<path d="M0 0 C-0.33 2.64 -0.66 5.28 -1 8 C0.32 8.33 1.64 8.66 3 9 C2.67 9.66 2.34 10.32 2 11 C0.68 11 -0.64 11 -2 11 C-3.55010435 20.99257314 -3.55010435 20.99257314 -5 31 C-1.73539027 29.19587357 -0.11070205 28.16605307 2 25 C2.66 25 3.32 25 4 25 C3.02552263 28.50811852 2.07842969 29.93404776 -0.75 32.3125 C-4.24849666 34.12902711 -6.12477324 34.61651335 -10 34 C-12.73689323 29.89466016 -12.49436352 26.82183545 -12 22 C-11.17086374 18.27607588 -10.14272258 14.63902725 -9 11 C-9.99 11 -10.98 11 -12 11 C-11.67 10.01 -11.34 9.02 -11 8 C-10.01 8 -9.02 8 -8 8 C-8.061875 7.05125 -8.12375 6.1025 -8.1875 5.125 C-8.125625 4.09375 -8.06375 3.0625 -8 2 C-4.77208445 -0.1519437 -3.71599191 -0.20086443 0 0 Z " fill="#61400B" transform="translate(304,228)"/>
<path d="M0 0 C-0.33 2.64 -0.66 5.28 -1 8 C-0.01 8 0.98 8 2 8 C2 8.99 2 9.98 2 11 C0.68 11 -0.64 11 -2 11 C-3.55010435 20.99257314 -3.55010435 20.99257314 -5 31 C-4.34 31 -3.68 31 -3 31 C-3.495 32.485 -3.495 32.485 -4 34 C-6.875 34.125 -6.875 34.125 -10 34 C-12 32 -12 32 -12.1953125 28.5234375 C-12.18201493 27.14049032 -12.15816232 25.75761346 -12.125 24.375 C-12.11597656 23.66859375 -12.10695313 22.9621875 -12.09765625 22.234375 C-12.07407603 20.48943902 -12.03820461 18.74467705 -12 17 C-13.32 16.67 -14.64 16.34 -16 16 C-15.67 15.01 -15.34 14.02 -15 13 C-15 13.66 -15 14.32 -15 15 C-13.35 14.67 -11.7 14.34 -10 14 C-10 13.01 -10 12.02 -10 11 C-10.66 11 -11.32 11 -12 11 C-12 10.01 -12 9.02 -12 8 C-10.68 8 -9.36 8 -8 8 C-7.67 5.69 -7.34 3.38 -7 1 C-4 0 -4 0 0 0 Z " fill="#64430F" transform="translate(105,228)"/>
<path d="M0 0 C4.42902925 2.08843277 8.31883793 4.67524085 11.67578125 8.26171875 C12.23828125 12.19921875 12.23828125 12.19921875 11.67578125 15.26171875 C5.67169265 19.0825024 -0.5207938 21.2359295 -7.32421875 23.26171875 C-8.43603516 23.60589844 -8.43603516 23.60589844 -9.5703125 23.95703125 C-16.68685648 25.86733228 -24.01848992 25.43497714 -31.32421875 25.26171875 C-27.72508105 23.13495556 -24.1657222 22.59072238 -20.07421875 21.88671875 C-14.20191969 20.79493752 -9.44014889 19.3881205 -4.32421875 16.26171875 C-2.80828125 15.36453125 -2.80828125 15.36453125 -1.26171875 14.44921875 C1.04685439 12.31971665 1.04685439 12.31971665 0.73828125 8.82421875 C-0.37021585 5.10749317 -1.69019341 3.06568121 -4.32421875 0.26171875 C-2.32421875 -0.73828125 -2.32421875 -0.73828125 0 0 Z " fill="#DEAE57" transform="translate(212.32421875,159.73828125)"/>
<path d="M0 0 C0 0.33 0 0.66 0 1 C-1.46759766 1.12955078 -1.46759766 1.12955078 -2.96484375 1.26171875 C-11.01487625 2.12450493 -17.23528158 3.1968666 -24 8 C-24.33425735 10.37374861 -24.33425735 10.37374861 -24 13 C-18.47432427 18.65270276 -8.85874927 18.1374809 -1.5 18.25 C3.30499341 18.2353655 7.32607016 17.73586374 11.9375 16.4375 C14.546875 15.84765625 14.546875 15.84765625 17 16 C20.34182572 18.54894032 22.67384881 21.520771 25 25 C24.505 22.03 24.505 22.03 24 19 C32 28.71428571 32 28.71428571 32 33 C27.41655968 32.16068355 25.23145385 29.43130809 22.25 26.0625 C21.74339844 25.51142578 21.23679688 24.96035156 20.71484375 24.39257812 C17 20.27220561 17 20.27220561 17 18 C15.96101563 18.2165625 14.92203125 18.433125 13.8515625 18.65625 C-11.20148272 23.72704654 -11.20148272 23.72704654 -21.9921875 17.9296875 C-24.41983213 16.08281909 -25.87631461 14.27485642 -27.125 11.5 C-26.93708634 7.74172674 -25.75220582 6.55561969 -23 4 C-15.24895832 -0.38932095 -8.70462356 -1.35071745 0 0 Z " fill="#765521" transform="translate(188,171)"/>
<path d="M0 0 C14.19 0 28.38 0 43 0 C37.80286234 5.19713766 30.61405432 4.03999881 23.5546875 4.09765625 C21.32810379 4.09110747 19.10152974 4.07932842 16.875 4.0625 C15.72773438 4.05798828 14.58046875 4.05347656 13.3984375 4.04882812 C10.59890187 4.03716339 7.79948014 4.02079614 5 4 C5.2165625 4.75925781 5.433125 5.51851563 5.65625 6.30078125 C5.9346875 7.29464844 6.213125 8.28851563 6.5 9.3125 C6.7784375 10.29863281 7.056875 11.28476563 7.34375 12.30078125 C8 15 8 15 8 18 C6.68 18 5.36 18 4 18 C3.32873871 15.5636811 2.66283646 13.12611117 2 10.6875 C1.71382812 9.65206055 1.71382812 9.65206055 1.421875 8.59570312 C0.62283816 5.64212051 0 3.07440781 0 0 Z " fill="#947C56" transform="translate(162,81)"/>
<path d="M0 0 C0.721875 0.165 1.44375 0.33 2.1875 0.5 C3.73958228 5.36993932 2.760217 9.72788323 1.1875 14.5 C-1.1875 17.625 -1.1875 17.625 -3.8125 19.5 C-5.1325 19.5 -6.4525 19.5 -7.8125 19.5 C-8.37401427 12.71191638 -8.30515483 7.57237435 -4.2578125 1.89453125 C-2.8125 0.5 -2.8125 0.5 0 0 Z " fill="#F6F4F1" transform="translate(122.8125,238.5)"/>
<path d="M0 0 C-1.14597656 0.58007812 -2.29195312 1.16015625 -3.47265625 1.7578125 C-5.00285796 2.54638271 -6.53279167 3.33547312 -8.0625 4.125 C-8.81466797 4.50398438 -9.56683594 4.88296875 -10.34179688 5.2734375 C-14.96531562 7.67526542 -18.78583885 10.28659042 -22.58764648 13.85888672 C-24 15 -24 15 -26 15 C-26.52709215 22.12087399 -26.52709215 22.12087399 -24.6875 28.875 C-16.44818908 35.38980399 -6.00918936 37.58212565 4 40 C4 40.33 4 40.66 4 41 C-1.27848405 41.2451941 -5.61706274 40.48115613 -10.5625 38.75 C-11.19607422 38.54503906 -11.82964844 38.34007812 -12.48242188 38.12890625 C-19.43655714 35.76550292 -25.0007838 32.23407231 -29 26 C-30.05932333 21.97904735 -29.84643727 18.6993856 -27.984375 14.9609375 C-23.02985628 8.41575751 -8.2491168 -2.47473504 0 0 Z " fill="#755118" transform="translate(94,34)"/>
<path d="M0 0 C3.875 1.75 3.875 1.75 5 4 C4.01 4.33 3.02 4.66 2 5 C2 5.99 2 6.98 2 8 C2.99 8.33 3.98 8.66 5 9 C4.5205537 13.21912747 3.83374881 15.79663178 1 19 C-0.65 18.67 -2.3 18.34 -4 18 C-4.9929715 12.34006248 -5.1542071 8.49322812 -3 3 C-1.375 1.0625 -1.375 1.0625 0 0 Z " fill="#F0EDE9" transform="translate(78,239)"/>
<path d="M0 0 C1.9375 0.3125 1.9375 0.3125 4 1 C4.33 1.99 4.66 2.98 5 4 C3.68 5.32 2.36 6.64 1 8 C2.32 8.33 3.64 8.66 5 9 C5.36923077 14.41538462 5.36923077 14.41538462 3.5 17.375 C3.005 17.91125 2.51 18.4475 2 19 C-0.4375 18.625 -0.4375 18.625 -3 18 C-4.61227876 14.77544247 -4.46900928 11.496251 -4 8 C-2.90583902 5.18098264 -1.5462608 2.59550921 0 0 Z " fill="#F3F1ED" transform="translate(163,239)"/>
<path d="M0 0 C1.32 0 2.64 0 4 0 C4.33885038 2.52019972 4.67120335 5.04098516 5 7.5625 C5.09539062 8.26697266 5.19078125 8.97144531 5.2890625 9.69726562 C5.86666417 14.17367855 6.09489383 18.48661238 6 23 C4.68 23 3.36 23 2 23 C0.48462814 15.2472493 -0.27990605 7.89957062 0 0 Z " fill="#CF9E3B" transform="translate(153,23)"/>
<path d="M0 0 C0.66 0.33 1.32 0.66 2 1 C1.75 2.875 1.75 2.875 1 5 C-1 6.1875 -1 6.1875 -3 7 C-4.20561184 7.98267859 -4.20561184 7.98267859 -4.09765625 9.84765625 C-4.08605469 10.57855469 -4.07445312 11.30945313 -4.0625 12.0625 C-4.041875 13.361875 -4.02125 14.66125 -4 16 C-6.64738916 17.4606285 -7.89448334 18 -11 18 C-11.83496262 11.32029902 -11.83496262 11.32029902 -9.58203125 7.7578125 C-6.72835536 4.43562266 -4.17790126 1.57102898 0 0 Z " fill="#684917" transform="translate(50,224)"/>
<path d="M0 0 C-0.125 1.8125 -0.125 1.8125 -1 4 C-6.07310883 7.64223198 -11.02812802 7.3186572 -17 7 C-17.33 5.68 -17.66 4.36 -18 3 C-15.75113762 2.49490792 -13.50086131 1.99610821 -11.25 1.5 C-9.37054688 1.08234375 -9.37054688 1.08234375 -7.453125 0.65625 C-4 0 -4 0 0 0 Z " fill="#8C6F3F" transform="translate(202,137)"/>
<path d="M0 0 C0 0.33 0 0.66 0 1 C-1.22348145 1.11275269 -1.22348145 1.11275269 -2.47167969 1.2277832 C-5.55885975 1.51679673 -8.64509452 1.81420922 -11.73095703 2.11694336 C-13.69894561 2.30755507 -15.66782831 2.48886311 -17.63671875 2.66992188 C-25.66604051 3.46470246 -33.23407556 4.8245318 -41 7 C-42.33220964 7.33779635 -43.66511913 7.67291904 -45 8 C-45.33 7.34 -45.66 6.68 -46 6 C-31.62354502 0.74552573 -15.25695069 -2.62179484 0 0 Z " fill="#7E602F" transform="translate(167,121)"/>
<path d="M0 0 C1.32 0.66 2.64 1.32 4 2 C4.41750113 8.05376634 4.11311805 11.181776 0 16 C-0.99 16.33 -1.98 16.66 -3 17 C-2.69188262 14.54104382 -2.37871012 12.08291693 -2.0625 9.625 C-1.97548828 8.92632812 -1.88847656 8.22765625 -1.79882812 7.5078125 C-1.11328125 2.2265625 -1.11328125 2.2265625 0 0 Z " fill="#F1EEEA" transform="translate(59,226)"/>
<path d="M0 0 C1.32 0 2.64 0 4 0 C4.67126129 2.4363189 5.33716354 4.87388883 6 7.3125 C6.19078125 8.00279297 6.3815625 8.69308594 6.578125 9.40429688 C7.37716184 12.35787949 8 14.92559219 8 18 C6.68 18 5.36 18 4 18 C3.32873871 15.5636811 2.66283646 13.12611117 2 10.6875 C1.71382812 9.65206055 1.71382812 9.65206055 1.421875 8.59570312 C0.62283816 5.64212051 0 3.07440781 0 0 Z " fill="#CB9A37" transform="translate(162,81)"/>
<path d="M0 0 C1.00244751 0.31723022 1.00244751 0.31723022 2.02514648 0.64086914 C11.82913414 3.4447125 21.23267332 3.44339152 31.33374023 3.43579102 C33.52636341 3.43934701 35.71775252 3.46657647 37.91015625 3.49609375 C39.84580444 3.49887329 39.84580444 3.49887329 41.82055664 3.50170898 C45 4 45 4 46.94311523 5.90649414 C48 8 48 8 48 10 C44.7 10 41.4 10 38 10 C38 9.67 38 9.34 38 9 C40.31 9 42.62 9 45 9 C44.505 7.515 44.505 7.515 44 6 C43.01717041 5.98541748 42.03434082 5.97083496 41.02172852 5.95581055 C37.33680837 5.8973541 33.65246944 5.82012942 29.96801758 5.73754883 C28.38054922 5.70452021 26.79296965 5.67642131 25.20532227 5.65356445 C8.45952959 5.40598589 8.45952959 5.40598589 1 2 C0.67 1.34 0.34 0.68 0 0 Z " fill="#5C3906" transform="translate(146,161)"/>
<path d="M0 0 C0.99 0.33 1.98 0.66 3 1 C3 1.99 3 2.98 3 4 C-9.375 4.99 -9.375 4.99 -22 6 C-22.66 5.01 -23.32 4.02 -24 3 C-17.88872179 2.04136812 -12.0388109 1.97893286 -5.85546875 2.16015625 C-2.79662239 2.23075155 -2.79662239 2.23075155 0 0 Z " fill="#674206" transform="translate(178,141)"/>
<path d="M0 0 C-3.00617269 3.00617269 -5.82381598 2.59585316 -10 3 C-9.67 2.34 -9.34 1.68 -9 1 C-18.9 1 -28.8 1 -39 1 C-39 0.67 -39 0.34 -39 0 C-37.46279297 -0.09087891 -37.46279297 -0.09087891 -35.89453125 -0.18359375 C-34.53384305 -0.26805026 -33.17316657 -0.35269567 -31.8125 -0.4375 C-31.13896484 -0.47681641 -30.46542969 -0.51613281 -29.77148438 -0.55664062 C-7.32030974 -1.98037365 -7.32030974 -1.98037365 0 0 Z " fill="#684309" transform="translate(212,81)"/>
<path d="M0 0 C1.06879395 0.09849243 1.06879395 0.09849243 2.15917969 0.19897461 C9.85305904 0.87795634 17.53211986 1.28458342 25.25 1.5625 C26.38824219 1.60568359 27.52648437 1.64886719 28.69921875 1.69335938 C31.46606496 1.79798801 34.23297726 1.9001689 37 2 C37 2.33 37 2.66 37 3 C32.85501384 3.22819748 28.70911983 3.42892125 24.5625 3.625 C22.81549805 3.72167969 22.81549805 3.72167969 21.03320312 3.8203125 C14.2792523 4.12471592 8.49103887 3.97349062 2 2 C1.34 1.34 0.68 0.68 0 0 Z " fill="#835B18" transform="translate(114,113)"/>
<path d="M0 0 C0.625 1.8125 0.625 1.8125 1 4 C0.01 5.485 0.01 5.485 -1 7 C-3.5625 7.25 -3.5625 7.25 -6 7 C-7 6 -7 6 -7.0625 2.9375 C-7.041875 1.968125 -7.02125 0.99875 -7 0 C-4.3333581 -1.33332095 -2.83319697 -0.67102033 0 0 Z " fill="#654410" transform="translate(265,226)"/>
<path d="M0 0 C6.74603973 0.53968318 10.61098402 2.54641602 15.3125 7.375 C17.80441909 11.25131858 18.25144068 14.34767555 17.5625 18.875 C17.376875 19.57625 17.19125 20.2775 17 21 C16.67 21 16.34 21 16 21 C15.98582031 20.33613281 15.97164062 19.67226563 15.95703125 18.98828125 C15.72463234 14.68576097 15.54446467 11.79035195 13.0625 8.1875 C8.94941631 5.24958308 4.59013599 3.09452807 0 1 C0 0.67 0 0.34 0 0 Z " fill="#805919" transform="translate(238,23)"/>
<path d="M0 0 C-2.31 0.66 -4.62 1.32 -7 2 C-6.195625 2.70125 -5.39125 3.4025 -4.5625 4.125 C-1.72949051 7.30349845 -1 8.78043104 -1 13 C-2.4375 15.375 -2.4375 15.375 -4 17 C-4 14 -4 14 -3.5 11.25 C-4.2851285 6.14666475 -8.02728249 3.99727348 -12 1 C-7.62136392 -1.91909072 -4.60643295 -2.90034667 0 0 Z " fill="#775620" transform="translate(224,115)"/>
<path d="M0 0 C0.66 0 1.32 0 2 0 C2.33 1.32 2.66 2.64 3 4 C4.65 4 6.3 4 8 4 C6.68 4.33 5.36 4.66 4 5 C4.33 6.98 4.66 8.96 5 11 C3.125 10.8125 3.125 10.8125 1 10 C-0.68644932 7.10894403 -1.06919665 5.51897488 -0.625 2.1875 C-0.41875 1.465625 -0.2125 0.74375 0 0 Z " fill="#C59533" transform="translate(173,116)"/>
<path d="M0 0 C3.33571429 1.11190476 3.58417079 1.46320673 5.1875 4.375 C5.70376953 5.28378906 5.70376953 5.28378906 6.23046875 6.2109375 C7 8 7 8 7 11 C5.68 11 4.36 11 3 11 C2.30034557 9.73581754 1.61565237 8.46334598 0.9375 7.1875 C0.55464844 6.47980469 0.17179688 5.77210938 -0.22265625 5.04296875 C-1 3 -1 3 0 0 Z " fill="#CB9935" transform="translate(193,164)"/>
<path d="M0 0 C-3.43658708 0.22580354 -6.87417218 0.42762697 -10.3125 0.625 C-11.28896484 0.68945312 -12.26542969 0.75390625 -13.27148438 0.8203125 C-14.67817383 0.89765625 -14.67817383 0.89765625 -16.11328125 0.9765625 C-17.40939331 1.05511475 -17.40939331 1.05511475 -18.73168945 1.13525391 C-21 1 -21 1 -24 -1 C-5.25 -3.5 -5.25 -3.5 0 0 Z " fill="#8A6C3B" transform="translate(166,20)"/>
<path d="M0 0 C1.32 0.33 2.64 0.66 4 1 C4 1.66 4 2.32 4 3 C4.99 3.33 5.98 3.66 7 4 C7 7 7 7 6 10 C5.01 10 4.02 10 3 10 C0.96564469 6.27034861 0 4.33094958 0 0 Z " fill="#C99937" transform="translate(181,141)"/>
<path d="M0 0 C8 9.71428571 8 9.71428571 8 14 C5.13275314 13.42655063 4.1385485 13.1385485 2 11 C0.70293009 7.10879026 0 4.12193682 0 0 Z " fill="#7D5C25" transform="translate(212,190)"/>
<path d="M0 0 C0.66 0.33 1.32 0.66 2 1 C-10.53333333 11 -10.53333333 11 -16 11 C-16 11.66 -16 12.32 -16 13 C-17.32 13 -18.64 13 -20 13 C-20 12.34 -20 11.68 -20 11 C-18.89140625 10.45730469 -17.7828125 9.91460937 -16.640625 9.35546875 C-15.17697731 8.63302726 -13.7134415 7.91035908 -12.25 7.1875 C-11.52039063 6.83107422 -10.79078125 6.47464844 -10.0390625 6.10742188 C-6.44089782 4.32469483 -3.10367291 2.58911661 0 0 Z " fill="#6C4A14" transform="translate(243,61)"/>
<path d="M0 0 C5.875 0.875 5.875 0.875 7 2 C7.04080783 3.99958364 7.04254356 6.00045254 7 8 C5.02 7.34 3.04 6.68 1 6 C0.67 4.02 0.34 2.04 0 0 Z " fill="#664613" transform="translate(283,237)"/>
<path d="M0 0 C0 0.33 0 0.66 0 1 C-2.93705131 1.22155127 -5.87380363 1.42774197 -8.8125 1.625 C-9.64587891 1.68945312 -10.47925781 1.75390625 -11.33789062 1.8203125 C-12.54155273 1.89765625 -12.54155273 1.89765625 -13.76953125 1.9765625 C-14.87711792 2.05511475 -14.87711792 2.05511475 -16.00708008 2.13525391 C-18 2 -18 2 -21 0 C-13.80827843 -1.07875823 -7.21805755 -0.7938642 0 0 Z " fill="#927544" transform="translate(167,121)"/>
<path d="M0 0 C0.66 0.33 1.32 0.66 2 1 C0.35 2.32 -1.3 3.64 -3 5 C-1.02 6.65 0.96 8.3 3 10 C2.67 10.99 2.34 11.98 2 13 C0.88625 11.8553125 0.88625 11.8553125 -0.25 10.6875 C-2.823554 8.04428801 -2.823554 8.04428801 -5.3125 6.3125 C-6.1478125 5.6628125 -6.1478125 5.6628125 -7 5 C-7 4.34 -7 3.68 -7 3 C-4.69631264 1.93347808 -2.35981813 0.93578995 0 0 Z " fill="#6C470B" transform="translate(218,131)"/>
<path d="M0 0 C3.48247874 1.16082625 3.88819244 1.90932476 5.75 4.9375 C6.19859375 5.64777344 6.6471875 6.35804688 7.109375 7.08984375 C7.40328125 7.72019531 7.6971875 8.35054687 8 9 C7.67 9.66 7.34 10.32 7 11 C4.36 8.03 1.72 5.06 -1 2 C-0.67 1.34 -0.34 0.68 0 0 Z " fill="#BF8E2B" transform="translate(206,186)"/>
<path d="M0 0 C-0.99 0.33 -1.98 0.66 -3 1 C-2.67 1.66 -2.34 2.32 -2 3 C-0.35 3 1.3 3 3 3 C3.33 2.34 3.66 1.68 4 1 C4 1.99 4 2.98 4 4 C1.82311446 5.32168051 0.44782067 6.0131712 -2.125 5.9375 C-4 5 -4 5 -5.25 2.4375 C-5.4975 1.633125 -5.745 0.82875 -6 0 C-2.25 -1.125 -2.25 -1.125 0 0 Z " fill="#6E4C15" transform="translate(201,164)"/>
<path d="M0 0 C0 0.33 0 0.66 0 1 C-2.28831672 1.55564871 -4.58080365 2.09414974 -6.875 2.625 C-8.15117188 2.92664063 -9.42734375 3.22828125 -10.7421875 3.5390625 C-11.81726563 3.69117188 -12.89234375 3.84328125 -14 4 C-14.66 3.34 -15.32 2.68 -16 2 C-5.62642369 -1.62870159 -5.62642369 -1.62870159 0 0 Z " fill="#8C6E3C" transform="translate(124,24)"/>
<path d="M0 0 C3.1875 0.875 3.1875 0.875 6 2 C5.67 2.99 5.34 3.98 5 5 C4.34 4.67 3.68 4.34 3 4 C1.32345271 4.27942455 -0.34608154 4.60828247 -2 5 C-2.33 4.01 -2.66 3.02 -3 2 C-2.01 1.34 -1.02 0.68 0 0 Z " fill="#BDA782" transform="translate(201,163)"/>
<path d="M0 0 C4.29 0 8.58 0 13 0 C13 0.66 13 1.32 13 2 C9.37 2.33 5.74 2.66 2 3 C1.34 2.01 0.68 1.02 0 0 Z " fill="#5D3A02" transform="translate(154,144)"/>
<path d="M0 0 C2.8203125 0.4609375 2.8203125 0.4609375 6.125 1.375 C7.22070312 1.67148438 8.31640625 1.96796875 9.4453125 2.2734375 C10.28835937 2.51320313 11.13140625 2.75296875 12 3 C12 3.33 12 3.66 12 4 C6.80790596 4.21192221 2.873261 3.5912689 -2 2 C-1.34 1.34 -0.68 0.68 0 0 Z " fill="#765520" transform="translate(86,71)"/>
<path d="M0 0 C0 0.33 0 0.66 0 1 C-1.78871178 1.38885039 -3.58112874 1.76069196 -5.375 2.125 C-6.37273437 2.33382812 -7.37046875 2.54265625 -8.3984375 2.7578125 C-9.25695312 2.83773437 -10.11546875 2.91765625 -11 3 C-11.66 2.34 -12.32 1.68 -13 1 C-8.20862412 -0.6290678 -4.94367454 -1.20577428 0 0 Z " fill="#8A6C3C" transform="translate(137,86)"/>
<path d="M0 0 C0.33 0.99 0.66 1.98 1 3 C-0.98 3.99 -0.98 3.99 -3 5 C-3 7.31 -3 9.62 -3 12 C-3.33 12 -3.66 12 -4 12 C-4.8125 8.8125 -4.8125 8.8125 -5 5 C-2.5625 2.0625 -2.5625 2.0625 0 0 Z " fill="#825914" transform="translate(111,93)"/>
<path d="M0 0 C0.99 0.33 1.98 0.66 3 1 C3.33 2.32 3.66 3.64 4 5 C0.7 5 -2.6 5 -6 5 C-6 4.67 -6 4.34 -6 4 C-3.69 4 -1.38 4 1 4 C0.67 2.68 0.34 1.36 0 0 Z " fill="#694610" transform="translate(190,166)"/>
<path d="M0 0 C-1.24976756 3.65316671 -1.67098753 4.78065836 -5 7 C-5.66 6.34 -6.32 5.68 -7 5 C-2.25 0 -2.25 0 0 0 Z " fill="#6E501F" transform="translate(308,253)"/>
<path d="M0 0 C-1.98 0.66 -3.96 1.32 -6 2 C-6 2.66 -6 3.32 -6 4 C-7.32 4 -8.64 4 -10 4 C-10 3.34 -10 2.68 -10 2 C-3.375 -1.125 -3.375 -1.125 0 0 Z " fill="#674207" transform="translate(233,70)"/>
</svg>
